# xmcd
#
# Track frame offsets: 
#        150
#        15461
#        31617
#        42789
#        55211
#        73409
#        89445
#        106386
#        126877
#        147225
#        163887
#        183276
#
# Disc length: 2720 seconds
#
# Revision: 0
# Processed by: cddbd v1.5.2PL0 Copyright (c) Steve Scherf et al.
# Submitted via: ExactAudioCopy v0.99pb2
#
DISCID=a10a9e0c
DTITLE=Bill Sheffield - In Other Words...
DYEAR=2009
DGENRE=Blues
TTITLE0=Say It Again
TTITLE1=Lose My Mind
TTITLE2=O, Let Me Fly
TTITLE3=As the Fire Burns Low
TTITLE4=Loving You
TTITLE5=Wild as the River
TTITLE6=The Luckiest Man in the World
TTITLE7=If You Know Me
TTITLE8=Georgia, Far Thee Well
TTITLE9=Hearing Things
TTITLE10=Thumpin' on the Book
TTITLE11=Love Remains
EXTD=
EXTT0=
EXTT1=
EXTT2=
EXTT3=
EXTT4=
EXTT5=
EXTT6=
EXTT7=
EXTT8=
EXTT9=
EXTT10=
EXTT11=
PLAYORDER=
